# xmcd
#
# Track frame offsets:
#	150
#	6334
#	16831
#	27152
#	37228
#	44489
#	50036
#	52071
#	62101
#	73355
#	84819
#	90290
#	92090
#	99568
#	105812
#	115380
#	130302
#	143373
#	154479
#	163619
#	169913
#
# Disc length: 2572 seconds
#
# Revision: 0
# Processed by: cddbd v1.5.1PL0 Copyright (c) Steve Scherf et al.
# Submitted via: dBpowerAMP V4.0
#
DISCID=1a0a0a15
DTITLE=Volklore - Schlitzer Mundart
DYEAR=1900
DGENRE=Volklore
TTITLE0=Einleitung
TTITLE1=Schlitzerländer Mundart 1
TTITLE2=Schlitzerländer Mundart 2
TTITLE3=Mi Schlitzerland
TTITLE4=Klapperstorch on Pengsteborn
TTITLE5=Suse, Suse, Suse
TTITLE6=In de Bonne
TTITLE7=Dee Foahrkoart
TTITLE8=De Engergrenger Heinerich
TTITLE9=Ehstandslied
TTITLE10=Dee Frejerej
TTITLE11=Woart emoal e Willche
TTITLE12=Fort von Frau on Häed
TTITLE13=Gaderob´firsch Drachdefest
TTITLE14=Mir mache hit Kardoffel uus
TTITLE15=Dee Schlitzerläenner
TTITLE16=Schnieder-Lieschens Motze
TTITLE17=Dee kromme Bei
TTITLE18=De Uufloat
TTITLE19=´s woar alles fier dee Katz
TTITLE20=Schlitzer Lied
EXTD=
EXTT0=
EXTT1=
EXTT2=
EXTT3=
EXTT4=
EXTT5=
EXTT6=
EXTT7=
EXTT8=
EXTT9=
EXTT10=
EXTT11=
EXTT12=
EXTT13=
EXTT14=
EXTT15=
EXTT16=
EXTT17=
EXTT18=
EXTT19=
EXTT20=
PLAYORDER=
